<svg width="25" height="21" viewBox="0 0 25 21" fill="none" xmlns="http://www.w3.org/2000/svg">
<g id="Servings-Icon" clip-path="url(#clip0)">
<path id="Stroke 2503" d="M20.9023 13.5H23.9023C23.9023 5.5 22.5023 0 21.1213 0H20.9023V20.5" stroke="#E3CDB1" stroke-width="1.5" stroke-linecap="round" stroke-linejoin="round"/>
<path id="Stroke 2504" d="M0.902344 1V5C0.902344 6.657 2.24534 8 3.90234 8C5.55834 8 6.90234 6.657 6.90234 5V1" stroke="#E3CDB1" stroke-width="1.5" stroke-linecap="round" stroke-linejoin="round"/>
<path id="Stroke 2505" d="M3.40234 1V20.5" stroke="#E3CDB1" stroke-width="1.5" stroke-linecap="round" stroke-linejoin="round"/>
<path id="Stroke 2506" fill-rule="evenodd" clip-rule="evenodd" d="M18.9023 14C18.9023 17.59 15.9923 20.5 12.4023 20.5C8.81234 20.5 5.90234 17.59 5.90234 14C5.90234 10.41 8.81234 7.5 12.4023 7.5C15.9923 7.5 18.9023 10.41 18.9023 14V14Z" stroke="#E3CDB1" stroke-width="1.5" stroke-linejoin="round"/>
<path id="Stroke 2507" fill-rule="evenodd" clip-rule="evenodd" d="M12.4032 17.4844C12.4032 17.4844 15.7732 15.0574 15.7732 13.2594C15.7732 11.1854 13.0162 10.5304 12.4032 13.0524C11.7902 10.5304 9.0332 11.1854 9.0332 13.2594C9.0332 15.0574 12.4032 17.4844 12.4032 17.4844V17.4844Z" stroke="#E3CDB1" stroke-width="1.5" stroke-linejoin="round"/>
</g>
<defs>
<clipPath id="clip0">
<rect width="24" height="21" fill="white" transform="translate(0.402344)"/>
</clipPath>
</defs>
</svg>
